<svg height="512pt" viewBox="-79 0 512 512" width="512pt" xmlns="http://www.w3.org/2000/svg"><path d="m171.398438 329.585938c23.515624-23.453126 54.78125-36.367188 88.03125-36.367188 11.394531 0 22.558593 1.515625 33.257812 4.457031l9.136719-112.519531c.414062-5.066406-3.585938-9.402344-8.667969-9.402344h-256.472656c-5.082032 0-9.082032 4.335938-8.667969 9.402344l19.640625 241.914062c1.890625 23.253907 21.367188 41.171876 44.765625 41.171876h53.257813c-7.066407-15.757813-10.789063-32.96875-10.789063-50.75 0-33.210938 12.964844-64.429688 36.507813-87.90625zm0 0"/><path d="m142.28125 30.03125h45.277344c12.5625 0 22.824218 9.949219 23.269531 22.34375h30.03125c-.453125-28.957031-24.179687-52.375-53.300781-52.375h-45.277344c-29.121094 0-52.847656 23.417969-53.300781 52.375h30.03125c.445312-12.394531 10.707031-22.34375 23.269531-22.34375zm0 0"/><path d="m329.734375 137.046875-5.070313-30.355469c-2.34375-14.015625-14.472656-24.289062-28.6875-24.289062h-262.113281c-14.214843 0-26.34375 10.273437-28.6875 24.289062l-5.070312 30.355469c-.761719 4.542969 2.742187 8.675781 7.347656 8.675781h314.9375c4.601563 0 8.105469-4.132812 7.34375-8.675781zm0 0"/><path d="m259.429688 322.980469c-52.195313 0-94.511719 42.316406-94.511719 94.511719 0 52.195312 42.316406 94.507812 94.511719 94.507812 52.195312 0 94.507812-42.3125 94.507812-94.507812 0-52.195313-42.3125-94.511719-94.507812-94.511719zm41.46875 135.863281c-2.933594 2.941406-6.785157 4.414062-10.632813 4.414062-2.316406 0-4.628906-.542968-6.742187-1.609374-1.390626-.699219-2.699219-1.617188-3.859376-2.777344l-20.234374-20.175782-20.234376 20.175782c-2.929687 2.925781-6.765624 4.386718-10.601562 4.386718-3.851562 0-7.699219-1.472656-10.632812-4.414062-5.855469-5.871094-5.84375-15.378906.027343-21.234375l20.175781-20.117187-20.175781-20.117188c-5.871093-5.855469-5.882812-15.363281-.027343-21.234375 5.855468-5.875 15.363281-5.886719 21.234374-.03125l20.234376 20.175781 20.234374-20.175781c1.996094-1.992187 4.421876-3.289063 6.976563-3.921875 4.945313-1.226562 10.394531.078125 14.257813 3.953125.15625.160156.292968.328125.445312.492187 5.386719 5.898438 5.238281 15.042969-.476562 20.742188l-20.171876 20.117188 20.171876 20.117187c5.871093 5.855469 5.882812 15.363281.03125 21.234375zm0 0"/></svg>