<svg id="Capa_1" enable-background="new 0 0 512 512" height="512" viewBox="0 0 512 512" width="512" xmlns="http://www.w3.org/2000/svg"><g><path d="m0 150v347c0 8.291 6.709 15 15 15h482c8.291 0 15-6.709 15-15v-347zm361 301h-210c-36.313 0-57.188-40.734-37.354-70.166l102.7-175.898c7.076-14.209 22.823-23.936 39.654-23.936s32.578 9.727 40.122 24.771c104.18 178.374 104.707 179.443 105 180.015 14.943 27.949-5.442 65.214-40.122 65.214z"/><path d="m269.755 220.053c-5.918-11.66-22.061-10.811-27.041-.85-1.754 3.008-112.199 192.384-105.19 180.366-4.791 8.965 1.883 21.431 13.476 21.431h210c11.481 0 18.313-12.38 13.477-21.431-2.608-4.629-104.722-179.516-104.722-179.516zm-13.755 170.947c-8.284 0-15-6.716-15-15 0-8.286 6.716-15 15-15s15 6.714 15 15c0 8.284-6.716 15-15 15zm15-75c0 8.291-6.709 15-15 15s-15-6.709-15-15v-45c0-8.291 6.709-15 15-15s15 6.709 15 15z"/><path d="m512 120v-105c0-8.291-6.709-15-15-15h-482c-8.291 0-15 6.709-15 15v105zm-76-75c8.284 0 15 6.714 15 15 0 8.284-6.716 15-15 15s-15-6.716-15-15c0-8.286 6.716-15 15-15zm-60 0c8.284 0 15 6.714 15 15 0 8.284-6.716 15-15 15s-15-6.716-15-15c0-8.286 6.716-15 15-15zm-60 0c8.284 0 15 6.714 15 15 0 8.284-6.716 15-15 15s-15-6.716-15-15c0-8.286 6.716-15 15-15z"/></g></svg>