<svg height="512pt" viewBox="0 -61 512 512" width="512pt" xmlns="http://www.w3.org/2000/svg"><path d="m452 45.625c0-19.613281-12.59375-36.628906-30-42.972656v267.347656h30c0-9.308594 0-214.035156 0-224.375zm0 0"/><path d="m497 90h-15v195c0 8.285156-6.714844 15-15 15h-45v44.007812c0 25.613282 20.753906 46.5 45.921875 45.984376 24.304687-.488282 44.078125-20.671876 44.078125-44.992188v-240c0-8.285156-6.714844-15-15-15zm0 0"/><path d="m392 0h-347c-24.851562 0-45 20.148438-45 45v270c0 41.421875 33.578125 75 75 75h332.394531c-9.878906-13.167969-15.394531-29.410156-15.394531-45.992188zm-180 315c0 8.285156-6.714844 15-15 15h-121c-8.285156 0-15-6.714844-15-15v-120c0-8.285156 6.714844-15 15-15h121c8.285156 0 15 6.714844 15 15zm105 15h-61c-8.285156 0-15-6.714844-15-15s6.714844-15 15-15h61c8.285156 0 15 6.714844 15 15s-6.714844 15-15 15zm0-60h-61c-8.285156 0-15-6.714844-15-15s6.714844-15 15-15h61c8.285156 0 15 6.714844 15 15s-6.714844 15-15 15zm0-60h-61c-8.285156 0-15-6.714844-15-15s6.714844-15 15-15h61c8.285156 0 15 6.714844 15 15s-6.714844 15-15 15zm0-60h-242c-8.285156 0-15-6.714844-15-15s6.714844-15 15-15h242c8.285156 0 15 6.714844 15 15s-6.714844 15-15 15zm0-60h-242c-8.285156 0-15-6.714844-15-15s6.714844-15 15-15h242c8.285156 0 15 6.714844 15 15s-6.714844 15-15 15zm0 0"/><path d="m91 210h91v90h-91zm0 0"/></svg>