<?xml version="1.0" encoding="iso-8859-1"?>
<!-- Generator: Adobe Illustrator 19.0.0, SVG Export Plug-In . SVG Version: 6.00 Build 0)  -->
<svg version="1.1" id="Capa_1" xmlns="http://www.w3.org/2000/svg" xmlns:xlink="http://www.w3.org/1999/xlink" x="0px" y="0px"
	 viewBox="0 0 192.701 192.701" style="enable-background:new 0 0 192.701 192.701;" xml:space="preserve">
<g>
	<g id="Double_Chevron_Left">
		<path d="M29.641,96.345l74.54-75.61c4.704-4.74,4.704-12.439,0-17.179c-4.704-4.74-12.319-4.74-17.011,0l-82.997,84.2
			c-4.511,4.559-4.535,12.608,0,17.191l83.009,84.2c4.692,4.74,12.319,4.74,17.011,0c4.704-4.74,4.704-12.439,0-17.179
			L29.641,96.345z"/>
		<path d="M113.853,96.345l74.54-75.61c4.704-4.74,4.704-12.439,0-17.179c-4.704-4.74-12.319-4.74-17.011,0l-82.997,84.2
			c-4.511,4.559-4.535,12.608,0,17.191l82.997,84.2c4.704,4.74,12.319,4.74,17.011,0c4.704-4.74,4.704-12.439,0-17.179
			L113.853,96.345z"/>
	</g>
	<g>
	</g>
	<g>
	</g>
	<g>
	</g>
	<g>
	</g>
	<g>
	</g>
	<g>
	</g>
</g>
<g>
</g>
<g>
</g>
<g>
</g>
<g>
</g>
<g>
</g>
<g>
</g>
<g>
</g>
<g>
</g>
<g>
</g>
<g>
</g>
<g>
</g>
<g>
</g>
<g>
</g>
<g>
</g>
<g>
</g>
</svg>
