<?xml version="1.0" encoding="iso-8859-1"?>
<!-- Generator: Adobe Illustrator 19.0.0, SVG Export Plug-In . SVG Version: 6.00 Build 0)  -->
<svg version="1.1" id="Capa_1" xmlns="http://www.w3.org/2000/svg" xmlns:xlink="http://www.w3.org/1999/xlink" x="0px" y="0px"
	 viewBox="0 0 512 512" style="enable-background:new 0 0 512 512;" xml:space="preserve">
<g>
	<g>
		<path d="M507.353,245.245l-83.692-78.769c-4.289-4.039-10.57-5.141-15.98-2.803c-5.409,2.337-8.911,7.666-8.911,13.558v34.462
			h-98.462v-98.462h34.462c5.893,0,11.221-3.502,13.558-8.911c2.336-5.409,1.236-11.69-2.803-15.98L266.755,4.647
			C263.964,1.682,260.072,0,256,0c-4.072,0-7.964,1.682-10.755,4.647L166.476,88.34c-4.039,4.29-5.141,10.571-2.803,15.98
			c2.337,5.409,7.666,8.911,13.558,8.911h34.462v98.462h-98.462v-34.462c0-5.893-3.502-11.221-8.911-13.558
			c-5.41-2.337-11.69-1.236-15.98,2.803L4.647,245.245C1.682,248.036,0,251.928,0,256s1.682,7.964,4.647,10.755l83.692,78.769
			c4.29,4.039,10.57,5.142,15.98,2.803c5.409-2.337,8.911-7.666,8.911-13.558v-34.462h98.462v98.462h-34.462
			c-5.893,0-11.221,3.502-13.558,8.911c-2.336,5.41-1.236,11.69,2.803,15.98l78.769,83.692C248.036,510.318,251.928,512,256,512
			c4.072,0,7.964-1.682,10.755-4.647l78.769-83.692c4.039-4.29,5.141-10.571,2.803-15.98c-2.337-5.409-7.666-8.911-13.558-8.911
			h-34.462v-98.462h98.462v34.462c0,5.893,3.502,11.221,8.911,13.558c5.411,2.337,11.691,1.236,15.98-2.803l83.692-78.769
			C510.318,263.964,512,260.072,512,256C512,251.928,510.318,248.035,507.353,245.245z M428.308,300.587v-15.049
			c0-8.157-6.613-14.769-14.769-14.769h-128c-8.157,0-14.769,6.613-14.769,14.769v128c0,8.157,6.613,14.769,14.769,14.769h15.049
			L256,475.682l-44.587-47.374h15.049c8.157,0,14.769-6.613,14.769-14.769v-128c0-8.157-6.613-14.769-14.769-14.769h-128
			c-8.157,0-14.769,6.613-14.769,14.769v15.049L36.319,256l47.374-44.587v15.049c0,8.157,6.613,14.769,14.769,14.769h128
			c8.157,0,14.769-6.613,14.769-14.769v-128c0-8.157-6.613-14.769-14.769-14.769h-15.049L256,36.319l44.587,47.374h-15.049
			c-8.157,0-14.769,6.613-14.769,14.769v128c0,8.157,6.613,14.769,14.769,14.769h128c8.157,0,14.769-6.613,14.769-14.769v-15.049
			L475.682,256L428.308,300.587z"/>
	</g>
</g>
<g>
</g>
<g>
</g>
<g>
</g>
<g>
</g>
<g>
</g>
<g>
</g>
<g>
</g>
<g>
</g>
<g>
</g>
<g>
</g>
<g>
</g>
<g>
</g>
<g>
</g>
<g>
</g>
<g>
</g>
</svg>
