<?xml version="1.0" encoding="iso-8859-1"?>
<!-- Generator: Adobe Illustrator 19.0.0, SVG Export Plug-In . SVG Version: 6.00 Build 0)  -->
<svg version="1.1" id="Capa_1" xmlns="http://www.w3.org/2000/svg" xmlns:xlink="http://www.w3.org/1999/xlink" x="0px" y="0px"
	 viewBox="0 0 307.2 307.2" style="enable-background:new 0 0 307.2 307.2;" xml:space="preserve">
<g>
	<g>
		<circle cx="153.6" cy="153.6" r="68.267"/>
	</g>
</g>
<g>
	<g>
		<path d="M153.6,0c-9.426,0-17.067,7.641-17.067,17.067v17.067c0,9.426,7.641,17.067,17.067,17.067s17.067-7.641,17.067-17.067
			V17.067C170.667,7.641,163.026,0,153.6,0z"/>
	</g>
</g>
<g>
	<g>
		<path d="M153.6,256c-9.426,0-17.067,7.641-17.067,17.067v17.067c0,9.426,7.641,17.067,17.067,17.067s17.067-7.641,17.067-17.067
			v-17.067C170.667,263.641,163.026,256,153.6,256z"/>
	</g>
</g>
<g>
	<g>
		<path d="M290.133,136.533h-17.067c-9.426,0-17.067,7.641-17.067,17.067s7.641,17.067,17.067,17.067h17.067
			c9.426,0,17.067-7.641,17.067-17.067S299.559,136.533,290.133,136.533z"/>
	</g>
</g>
<g>
	<g>
		<path d="M34.133,136.533H17.067C7.641,136.533,0,144.174,0,153.6s7.641,17.067,17.067,17.067h17.067
			c9.426,0,17.067-7.641,17.067-17.067S43.559,136.533,34.133,136.533z"/>
	</g>
</g>
<g>
	<g>
		<path d="M261.794,44.988c-6.614-6.388-17.1-6.388-23.714,0l-12.066,12.066c-6.664,6.666-6.662,17.472,0.004,24.136
			c3.2,3.199,7.538,4.996,12.063,4.997c4.526-0.001,8.866-1.8,12.066-5.001l12.066-12.066
			C268.761,62.34,268.573,51.536,261.794,44.988z"/>
	</g>
</g>
<g>
	<g>
		<path d="M81.606,226.014c-6.548-6.78-17.353-6.968-24.132-0.419c-0.142,0.137-0.282,0.277-0.419,0.419L44.988,238.08
			c-6.78,6.548-6.968,17.352-0.419,24.132c6.548,6.78,17.353,6.968,24.132,0.419c0.142-0.137,0.282-0.277,0.419-0.419l12.066-12.066
			C87.966,243.598,88.154,232.794,81.606,226.014z"/>
	</g>
</g>
<g>
	<g>
		<path d="M262.212,238.08l-12.066-12.066c-6.78-6.548-17.584-6.36-24.132,0.42c-6.387,6.614-6.387,17.099,0,23.712l12.066,12.066
			c6.78,6.548,17.584,6.36,24.132-0.42C268.6,255.179,268.6,244.694,262.212,238.08z"/>
	</g>
</g>
<g>
	<g>
		<path d="M81.606,57.474c-0.138-0.142-0.278-0.282-0.42-0.42L69.12,44.988c-6.78-6.548-17.584-6.36-24.132,0.419
			c-6.388,6.614-6.388,17.099,0,23.713l12.066,12.066c6.548,6.78,17.352,6.968,24.132,0.42
			C87.966,75.058,88.154,64.254,81.606,57.474z"/>
	</g>
</g>
<g>
</g>
<g>
</g>
<g>
</g>
<g>
</g>
<g>
</g>
<g>
</g>
<g>
</g>
<g>
</g>
<g>
</g>
<g>
</g>
<g>
</g>
<g>
</g>
<g>
</g>
<g>
</g>
<g>
</g>
</svg>
