<?xml version="1.0" encoding="iso-8859-1"?>
<!-- Generator: Adobe Illustrator 19.0.0, SVG Export Plug-In . SVG Version: 6.00 Build 0)  -->
<svg version="1.1" id="Capa_1" xmlns="http://www.w3.org/2000/svg" xmlns:xlink="http://www.w3.org/1999/xlink" x="0px" y="0px"
	 viewBox="0 0 67.949 67.949" style="enable-background:new 0 0 67.949 67.949;" xml:space="preserve">
<g>
	<path d="M62.49,11.239c-7.39-7.388-19.412-7.388-26.8,0l-1.716,1.715l-1.715-1.715c-7.388-7.389-19.411-7.389-26.799,0
		c-7.238,7.238-7.285,18.711-0.109,26.688c6.545,7.273,25.848,22.986,26.667,23.651c0.556,0.452,1.225,0.672,1.89,0.672
		c0.022,0,0.044,0,0.065-0.001c0.688,0.032,1.381-0.204,1.955-0.671c0.819-0.665,20.124-16.378,26.671-23.652
		C69.774,29.95,69.727,18.477,62.49,11.239z M58.139,33.913c-5.103,5.669-19.13,17.361-24.166,21.51
		c-5.036-4.148-19.06-15.839-24.162-21.509C4.805,28.35,4.758,20.426,9.702,15.482c2.525-2.524,5.841-3.787,9.157-3.787
		s6.632,1.262,9.157,3.787l3.772,3.772c0.449,0.449,1.015,0.717,1.609,0.811c0.964,0.207,2.01-0.062,2.76-0.81l3.774-3.773
		c5.051-5.049,13.267-5.048,18.315,0C63.19,20.426,63.143,28.35,58.139,33.913z"/>
</g>
<g>
</g>
<g>
</g>
<g>
</g>
<g>
</g>
<g>
</g>
<g>
</g>
<g>
</g>
<g>
</g>
<g>
</g>
<g>
</g>
<g>
</g>
<g>
</g>
<g>
</g>
<g>
</g>
<g>
</g>
</svg>
